<svg width="24" height="24" viewBox="0 0 24 24" fill="none" xmlns="http://www.w3.org/2000/svg">
<path d="M12 13C12 12.4477 12.4477 12 13 12H14V11C14 10.4477 14.4477 10 15 10C15.5523 10 16 10.4477 16 11V12H17C17.5523 12 18 12.4477 18 13C18 13.5523 17.5523 14 17 14H16V15C16 15.5523 15.5523 16 15 16C14.4477 16 14 15.5523 14 15V14H13C12.4477 14 12 13.5523 12 13ZM22 8V18C22 19.11 21.11 20 20 20H4C2.89 20 2 19.11 2 18V6C2 4.89 2.89 4 4 4H10L12 6H20C21.11 6 22 6.89 22 8ZM20 8H4V18H20V8Z" fill="white"/>
</svg>
