<svg width="24" height="24" viewBox="0 0 24 24" fill="none" xmlns="http://www.w3.org/2000/svg">
  <path
    d="M17 15C17 14.4477 17.4477 14 18 14C18.5523 14 19 14.4477 19 15V17H21C21.5523 17 22 17.4477 22 18C22 18.5523 21.5523 19 21 19H19V21C19 21.5523 18.5523 22 18 22C17.4477 22 17 21.5523 17 21V19H15C14.4477 19 14 18.5523 14 18C14 17.4477 14.4477 17 15 17H17V15ZM5 3H19C20.11 3 21 3.89 21 5V12.8C20.39 12.45 19.72 12.2 19 12.08V5H5V19H12.08C12.2 19.72 12.45 20.39 12.8 21H5C3.89 21 3 20.11 3 19V5C3 3.89 3.89 3 5 3ZM7 8C7 7.44772 7.44772 7 8 7H16C16.5523 7 17 7.44772 17 8C17 8.55228 16.5523 9 16 9H8C7.44772 9 7 8.55228 7 8ZM7 12C7 11.4477 7.44772 11 8 11H16C16.5523 11 17 11.4477 17 12V12.08C16.15 12.22 15.37 12.54 14.68 13H8C7.44772 13 7 12.5523 7 12ZM7 16C7 15.4477 7.44772 15 8 15H11C11.5523 15 12 15.4477 12 16C12 16.5523 11.5523 17 11 17H8C7.44772 17 7 16.5523 7 16Z"
    fill="black"/>
</svg>
