<svg width="89" height="26" viewBox="0 0 89 26" fill="none" xmlns="http://www.w3.org/2000/svg">
<path d="M59.8487 7.36576C59.6639 7.80223 59.5667 8.26846 59.5667 8.74357V9.54667C58.3909 9.54667 57.8966 9.96028 57.0652 10.6965C56.2337 11.4327 55.7667 12.4313 55.7667 13.4724C55.7667 13.4952 55.7669 13.518 55.7673 13.541C54.9957 12.5421 54.5 11.1378 54.5 10.062C54.5 9.16424 54.8512 8.30325 55.4763 7.66844C56.1014 7.03363 56.9493 6.677 57.8333 6.677C58.2711 6.677 58.7045 6.76456 59.1089 6.93467C59.3733 7.04585 59.6218 7.19087 59.8487 7.36576Z" fill="#62B3B2"/>
<path d="M57.3427 17.3803C57.5315 17.6053 57.7337 17.8146 57.9475 18.0026C57.831 18.9889 57.6801 19.9715 57.5 20.9481L56.8333 20.8398C57.049 19.6923 57.22 18.5391 57.3427 17.3803Z" fill="#62B3B2"/>
<path d="M65.4999 14.801L64.9399 13.948C66.4066 13.3048 67.4999 10.9827 67.4999 9.38499C67.4999 8.94047 67.4137 8.5003 67.2462 8.08961C67.0787 7.67892 66.8331 7.30577 66.5236 6.99144C66.2141 6.67712 65.8466 6.42778 65.4422 6.25767C65.0378 6.08756 64.6043 6 64.1666 6C63.2825 6 62.4347 6.35663 61.8096 6.99144C61.1844 7.62625 60.8333 8.48724 60.8333 9.38499C60.8333 9.4411 60.8346 9.49811 60.8373 9.5559C61.3154 9.58501 61.7858 9.68262 62.2298 9.84549C62.7677 10.0428 63.2564 10.332 63.6681 10.6965C64.0798 11.061 64.4063 11.4938 64.6291 11.9701C64.8519 12.4464 64.9666 12.9569 64.9666 13.4724C64.9666 13.884 64.8948 14.337 64.7619 14.801H65.4999Z" fill="#FAC863"/>
<path d="M64.442 15.6792C64.2283 16.1629 63.9555 16.6377 63.6356 17.0694C63.5167 18.1051 63.3595 19.1362 63.1666 20.1628L63.8333 20.2711C64.1134 18.7521 64.3229 17.2188 64.442 15.6792Z" fill="#FAC863"/>
<path d="M61.1401 18.6768L61.7001 19.5299H60.7001C60.6001 21.3645 60.3668 23.1924 60.0334 25L59.3668 24.8917C59.7001 23.1179 59.9268 21.3307 60.0334 19.5299H59.0334L59.5934 18.6768C58.1268 18.0337 57.0334 15.7116 57.0334 14.1139C57.0334 13.2161 57.3846 12.3551 58.0098 11.7203C58.6349 11.0855 59.4827 10.7289 60.3668 10.7289C60.8045 10.7289 61.238 10.8164 61.6424 10.9865C62.0468 11.1567 62.4143 11.406 62.7238 11.7203C63.0333 12.0346 63.2789 12.4078 63.4464 12.8185C63.6139 13.2292 63.7001 13.6693 63.7001 14.1139C63.7001 15.7116 62.6068 18.0337 61.1401 18.6768Z" fill="#C594C5"/>
<path d="M7.03715 13.7622L7.18077 9.851H7.0192L4.68545 17.0516L2.3517 9.851H2.19013L2.33375 13.7622V20H0V6H3.17749L4.72135 10.7135H4.86497L6.40884 6H9.3709V20H7.03715V13.7622Z" fill="#D8DEE9"/>
<path d="M17.8731 20L17.0832 16.6304H13.6544L12.8825 20H10.1538L13.5467 6H17.3525L20.7454 20H17.8731ZM15.4496 8.90831H15.306L14.0852 14.2034H16.6703L15.4496 8.90831Z" fill="#D8DEE9"/>
<path d="M24.8494 20H22.1925V6H27.0395C27.6499 6 28.1944 6.10697 28.6731 6.32092C29.1519 6.52149 29.5528 6.81566 29.8759 7.20344C30.211 7.59121 30.4623 8.05922 30.6299 8.60745C30.7975 9.15568 30.8812 9.77077 30.8812 10.4527C30.8812 11.4422 30.6897 12.2913 30.3068 13C29.9238 13.7087 29.3793 14.1767 28.6731 14.404L31.1326 20H28.1884L26.0881 14.8052H24.8494V20ZM26.3932 12.4785C27.0276 12.4785 27.4644 12.3448 27.7037 12.0774C27.9551 11.8099 28.0807 11.3687 28.0807 10.7536V10.1519C28.0807 9.53677 27.9551 9.09551 27.7037 8.82808C27.4644 8.56065 27.0276 8.42693 26.3932 8.42693H24.8494V12.4785H26.3932Z" fill="#D8DEE9"/>
<path d="M36.6188 14.1633L35.5058 15.9083V20H32.813V6H35.5058V11.8567H35.6494L37.0138 9.53009L39.2219 6H42.2378L38.4858 11.9169L42.4173 20H39.3834L36.6188 14.1633Z" fill="#D8DEE9"/>
<path d="M43.5054 6H47.5445C49.232 6 50.4827 6.60172 51.2965 7.80516C52.1103 9.0086 52.5172 10.7402 52.5172 13C52.5172 15.2598 52.1103 16.9914 51.2965 18.1948C50.4827 19.3983 49.232 20 47.5445 20H43.5054V6ZM47.365 17.6332C48.1669 17.6332 48.7533 17.3458 49.1243 16.7708C49.4953 16.1958 49.6808 15.3601 49.6808 14.2636V11.7163C49.6808 10.6332 49.4953 9.8042 49.1243 9.22923C48.7533 8.65425 48.1669 8.36676 47.365 8.36676H46.1622V17.6332H47.365Z" fill="#D8DEE9"/>
<path d="M69.5292 20L68.7572 6H71.073L71.4321 14.384L71.5398 17.0315H71.7014L72.7785 9.04871H75.202L76.2791 17.0315H76.4407L76.9074 6H79.1335L78.3615 20H74.9507L74.0351 12.2779H73.8556L72.94 20H69.5292Z" fill="#D8DEE9"/>
<path d="M82.9143 10.6934H82.7168V20H80.419V6H83.6503L86.5047 15.3066H86.7022V6H89V20H85.7687L82.9143 10.6934Z" fill="#D8DEE9"/>
</svg>
